<mxfile host="app.diagrams.net" modified="2024-03-04T14:25:14.769Z" agent="Mozilla/5.0 (Macintosh; Intel Mac OS X 10_15_7) AppleWebKit/537.36 (KHTML, like Gecko) Chrome/122.0.0.0 Safari/537.36" etag="P1Ua8TpeEF-LtLeXAXT_" version="23.0.2" type="device">
  <diagram name="Page-1" id="IHpRnkIihQYm4nxnaE4s">
    <mxGraphModel dx="1242" dy="786" grid="1" gridSize="10" guides="1" tooltips="1" connect="1" arrows="1" fold="1" page="1" pageScale="1" pageWidth="827" pageHeight="1169" math="0" shadow="0">
      <root>
        <mxCell id="0" />
        <mxCell id="1" parent="0" />
        <mxCell id="MJkaUFt4E90lAfmwO7AU-5" value="user" style="shape=table;startSize=30;container=1;collapsible=1;childLayout=tableLayout;fixedRows=1;rowLines=0;fontStyle=1;align=center;resizeLast=1;html=1;" vertex="1" parent="1">
          <mxGeometry x="90" y="260" width="210" height="90" as="geometry" />
        </mxCell>
        <mxCell id="MJkaUFt4E90lAfmwO7AU-6" value="" style="shape=tableRow;horizontal=0;startSize=0;swimlaneHead=0;swimlaneBody=0;fillColor=none;collapsible=0;dropTarget=0;points=[[0,0.5],[1,0.5]];portConstraint=eastwest;top=0;left=0;right=0;bottom=1;" vertex="1" parent="MJkaUFt4E90lAfmwO7AU-5">
          <mxGeometry y="30" width="210" height="30" as="geometry" />
        </mxCell>
        <mxCell id="MJkaUFt4E90lAfmwO7AU-7" value="PK" style="shape=partialRectangle;connectable=0;fillColor=none;top=0;left=0;bottom=0;right=0;fontStyle=1;overflow=hidden;whiteSpace=wrap;html=1;" vertex="1" parent="MJkaUFt4E90lAfmwO7AU-6">
          <mxGeometry width="30" height="30" as="geometry">
            <mxRectangle width="30" height="30" as="alternateBounds" />
          </mxGeometry>
        </mxCell>
        <mxCell id="MJkaUFt4E90lAfmwO7AU-8" value="user_id: BIGINT UNSIGNED" style="shape=partialRectangle;connectable=0;fillColor=none;top=0;left=0;bottom=0;right=0;align=left;spacingLeft=6;fontStyle=5;overflow=hidden;whiteSpace=wrap;html=1;" vertex="1" parent="MJkaUFt4E90lAfmwO7AU-6">
          <mxGeometry x="30" width="180" height="30" as="geometry">
            <mxRectangle width="180" height="30" as="alternateBounds" />
          </mxGeometry>
        </mxCell>
        <mxCell id="MJkaUFt4E90lAfmwO7AU-9" value="" style="shape=tableRow;horizontal=0;startSize=0;swimlaneHead=0;swimlaneBody=0;fillColor=none;collapsible=0;dropTarget=0;points=[[0,0.5],[1,0.5]];portConstraint=eastwest;top=0;left=0;right=0;bottom=0;" vertex="1" parent="MJkaUFt4E90lAfmwO7AU-5">
          <mxGeometry y="60" width="210" height="30" as="geometry" />
        </mxCell>
        <mxCell id="MJkaUFt4E90lAfmwO7AU-10" value="" style="shape=partialRectangle;connectable=0;fillColor=none;top=0;left=0;bottom=0;right=0;editable=1;overflow=hidden;whiteSpace=wrap;html=1;" vertex="1" parent="MJkaUFt4E90lAfmwO7AU-9">
          <mxGeometry width="30" height="30" as="geometry">
            <mxRectangle width="30" height="30" as="alternateBounds" />
          </mxGeometry>
        </mxCell>
        <mxCell id="MJkaUFt4E90lAfmwO7AU-11" value="username: VARCHAR(256)" style="shape=partialRectangle;connectable=0;fillColor=none;top=0;left=0;bottom=0;right=0;align=left;spacingLeft=6;overflow=hidden;whiteSpace=wrap;html=1;" vertex="1" parent="MJkaUFt4E90lAfmwO7AU-9">
          <mxGeometry x="30" width="180" height="30" as="geometry">
            <mxRectangle width="180" height="30" as="alternateBounds" />
          </mxGeometry>
        </mxCell>
        <mxCell id="MJkaUFt4E90lAfmwO7AU-18" value="user_password" style="shape=table;startSize=30;container=1;collapsible=1;childLayout=tableLayout;fixedRows=1;rowLines=0;fontStyle=1;align=center;resizeLast=1;html=1;" vertex="1" parent="1">
          <mxGeometry x="270" y="110" width="230" height="90" as="geometry" />
        </mxCell>
        <mxCell id="MJkaUFt4E90lAfmwO7AU-19" value="" style="shape=tableRow;horizontal=0;startSize=0;swimlaneHead=0;swimlaneBody=0;fillColor=none;collapsible=0;dropTarget=0;points=[[0,0.5],[1,0.5]];portConstraint=eastwest;top=0;left=0;right=0;bottom=1;" vertex="1" parent="MJkaUFt4E90lAfmwO7AU-18">
          <mxGeometry y="30" width="230" height="30" as="geometry" />
        </mxCell>
        <mxCell id="MJkaUFt4E90lAfmwO7AU-20" value="PK" style="shape=partialRectangle;connectable=0;fillColor=none;top=0;left=0;bottom=0;right=0;fontStyle=1;overflow=hidden;whiteSpace=wrap;html=1;" vertex="1" parent="MJkaUFt4E90lAfmwO7AU-19">
          <mxGeometry width="30" height="30" as="geometry">
            <mxRectangle width="30" height="30" as="alternateBounds" />
          </mxGeometry>
        </mxCell>
        <mxCell id="MJkaUFt4E90lAfmwO7AU-21" value="of_user_id: BIGINT UNSIGNED" style="shape=partialRectangle;connectable=0;fillColor=none;top=0;left=0;bottom=0;right=0;align=left;spacingLeft=6;fontStyle=5;overflow=hidden;whiteSpace=wrap;html=1;" vertex="1" parent="MJkaUFt4E90lAfmwO7AU-19">
          <mxGeometry x="30" width="200" height="30" as="geometry">
            <mxRectangle width="200" height="30" as="alternateBounds" />
          </mxGeometry>
        </mxCell>
        <mxCell id="MJkaUFt4E90lAfmwO7AU-22" value="" style="shape=tableRow;horizontal=0;startSize=0;swimlaneHead=0;swimlaneBody=0;fillColor=none;collapsible=0;dropTarget=0;points=[[0,0.5],[1,0.5]];portConstraint=eastwest;top=0;left=0;right=0;bottom=0;" vertex="1" parent="MJkaUFt4E90lAfmwO7AU-18">
          <mxGeometry y="60" width="230" height="30" as="geometry" />
        </mxCell>
        <mxCell id="MJkaUFt4E90lAfmwO7AU-23" value="" style="shape=partialRectangle;connectable=0;fillColor=none;top=0;left=0;bottom=0;right=0;editable=1;overflow=hidden;whiteSpace=wrap;html=1;" vertex="1" parent="MJkaUFt4E90lAfmwO7AU-22">
          <mxGeometry width="30" height="30" as="geometry">
            <mxRectangle width="30" height="30" as="alternateBounds" />
          </mxGeometry>
        </mxCell>
        <mxCell id="MJkaUFt4E90lAfmwO7AU-24" value="hashed: VARCHAR(128)" style="shape=partialRectangle;connectable=0;fillColor=none;top=0;left=0;bottom=0;right=0;align=left;spacingLeft=6;overflow=hidden;whiteSpace=wrap;html=1;" vertex="1" parent="MJkaUFt4E90lAfmwO7AU-22">
          <mxGeometry x="30" width="200" height="30" as="geometry">
            <mxRectangle width="200" height="30" as="alternateBounds" />
          </mxGeometry>
        </mxCell>
        <mxCell id="MJkaUFt4E90lAfmwO7AU-31" style="edgeStyle=orthogonalEdgeStyle;rounded=0;orthogonalLoop=1;jettySize=auto;html=1;exitX=0;exitY=0.5;exitDx=0;exitDy=0;entryX=0;entryY=0.5;entryDx=0;entryDy=0;" edge="1" parent="1" source="MJkaUFt4E90lAfmwO7AU-19" target="MJkaUFt4E90lAfmwO7AU-6">
          <mxGeometry relative="1" as="geometry" />
        </mxCell>
        <mxCell id="MJkaUFt4E90lAfmwO7AU-32" value="download_task" style="shape=table;startSize=30;container=1;collapsible=1;childLayout=tableLayout;fixedRows=1;rowLines=0;fontStyle=1;align=center;resizeLast=1;html=1;" vertex="1" parent="1">
          <mxGeometry x="261" y="400" width="521" height="210" as="geometry" />
        </mxCell>
        <mxCell id="MJkaUFt4E90lAfmwO7AU-33" value="" style="shape=tableRow;horizontal=0;startSize=0;swimlaneHead=0;swimlaneBody=0;fillColor=none;collapsible=0;dropTarget=0;points=[[0,0.5],[1,0.5]];portConstraint=eastwest;top=0;left=0;right=0;bottom=1;" vertex="1" parent="MJkaUFt4E90lAfmwO7AU-32">
          <mxGeometry y="30" width="521" height="30" as="geometry" />
        </mxCell>
        <mxCell id="MJkaUFt4E90lAfmwO7AU-34" value="PK" style="shape=partialRectangle;connectable=0;fillColor=none;top=0;left=0;bottom=0;right=0;fontStyle=1;overflow=hidden;whiteSpace=wrap;html=1;" vertex="1" parent="MJkaUFt4E90lAfmwO7AU-33">
          <mxGeometry width="30" height="30" as="geometry">
            <mxRectangle width="30" height="30" as="alternateBounds" />
          </mxGeometry>
        </mxCell>
        <mxCell id="MJkaUFt4E90lAfmwO7AU-35" value="download_task_id: BIGINT UNSIGNED" style="shape=partialRectangle;connectable=0;fillColor=none;top=0;left=0;bottom=0;right=0;align=left;spacingLeft=6;fontStyle=5;overflow=hidden;whiteSpace=wrap;html=1;" vertex="1" parent="MJkaUFt4E90lAfmwO7AU-33">
          <mxGeometry x="30" width="491" height="30" as="geometry">
            <mxRectangle width="491" height="30" as="alternateBounds" />
          </mxGeometry>
        </mxCell>
        <mxCell id="MJkaUFt4E90lAfmwO7AU-36" value="" style="shape=tableRow;horizontal=0;startSize=0;swimlaneHead=0;swimlaneBody=0;fillColor=none;collapsible=0;dropTarget=0;points=[[0,0.5],[1,0.5]];portConstraint=eastwest;top=0;left=0;right=0;bottom=0;" vertex="1" parent="MJkaUFt4E90lAfmwO7AU-32">
          <mxGeometry y="60" width="521" height="30" as="geometry" />
        </mxCell>
        <mxCell id="MJkaUFt4E90lAfmwO7AU-37" value="" style="shape=partialRectangle;connectable=0;fillColor=none;top=0;left=0;bottom=0;right=0;editable=1;overflow=hidden;whiteSpace=wrap;html=1;" vertex="1" parent="MJkaUFt4E90lAfmwO7AU-36">
          <mxGeometry width="30" height="30" as="geometry">
            <mxRectangle width="30" height="30" as="alternateBounds" />
          </mxGeometry>
        </mxCell>
        <mxCell id="MJkaUFt4E90lAfmwO7AU-38" value="of_user_id: BIGINT UNSIGNED" style="shape=partialRectangle;connectable=0;fillColor=none;top=0;left=0;bottom=0;right=0;align=left;spacingLeft=6;overflow=hidden;whiteSpace=wrap;html=1;" vertex="1" parent="MJkaUFt4E90lAfmwO7AU-36">
          <mxGeometry x="30" width="491" height="30" as="geometry">
            <mxRectangle width="491" height="30" as="alternateBounds" />
          </mxGeometry>
        </mxCell>
        <mxCell id="MJkaUFt4E90lAfmwO7AU-39" value="" style="shape=tableRow;horizontal=0;startSize=0;swimlaneHead=0;swimlaneBody=0;fillColor=none;collapsible=0;dropTarget=0;points=[[0,0.5],[1,0.5]];portConstraint=eastwest;top=0;left=0;right=0;bottom=0;" vertex="1" parent="MJkaUFt4E90lAfmwO7AU-32">
          <mxGeometry y="90" width="521" height="30" as="geometry" />
        </mxCell>
        <mxCell id="MJkaUFt4E90lAfmwO7AU-40" value="" style="shape=partialRectangle;connectable=0;fillColor=none;top=0;left=0;bottom=0;right=0;editable=1;overflow=hidden;whiteSpace=wrap;html=1;" vertex="1" parent="MJkaUFt4E90lAfmwO7AU-39">
          <mxGeometry width="30" height="30" as="geometry">
            <mxRectangle width="30" height="30" as="alternateBounds" />
          </mxGeometry>
        </mxCell>
        <mxCell id="MJkaUFt4E90lAfmwO7AU-41" value="download_type: SMALLINT (HTTP, FTP, Torrent, vv...)" style="shape=partialRectangle;connectable=0;fillColor=none;top=0;left=0;bottom=0;right=0;align=left;spacingLeft=6;overflow=hidden;whiteSpace=wrap;html=1;" vertex="1" parent="MJkaUFt4E90lAfmwO7AU-39">
          <mxGeometry x="30" width="491" height="30" as="geometry">
            <mxRectangle width="491" height="30" as="alternateBounds" />
          </mxGeometry>
        </mxCell>
        <mxCell id="MJkaUFt4E90lAfmwO7AU-42" value="" style="shape=tableRow;horizontal=0;startSize=0;swimlaneHead=0;swimlaneBody=0;fillColor=none;collapsible=0;dropTarget=0;points=[[0,0.5],[1,0.5]];portConstraint=eastwest;top=0;left=0;right=0;bottom=0;" vertex="1" parent="MJkaUFt4E90lAfmwO7AU-32">
          <mxGeometry y="120" width="521" height="30" as="geometry" />
        </mxCell>
        <mxCell id="MJkaUFt4E90lAfmwO7AU-43" value="" style="shape=partialRectangle;connectable=0;fillColor=none;top=0;left=0;bottom=0;right=0;editable=1;overflow=hidden;whiteSpace=wrap;html=1;" vertex="1" parent="MJkaUFt4E90lAfmwO7AU-42">
          <mxGeometry width="30" height="30" as="geometry">
            <mxRectangle width="30" height="30" as="alternateBounds" />
          </mxGeometry>
        </mxCell>
        <mxCell id="MJkaUFt4E90lAfmwO7AU-44" value="url: TEXT (VARCHAR)" style="shape=partialRectangle;connectable=0;fillColor=none;top=0;left=0;bottom=0;right=0;align=left;spacingLeft=6;overflow=hidden;whiteSpace=wrap;html=1;" vertex="1" parent="MJkaUFt4E90lAfmwO7AU-42">
          <mxGeometry x="30" width="491" height="30" as="geometry">
            <mxRectangle width="491" height="30" as="alternateBounds" />
          </mxGeometry>
        </mxCell>
        <mxCell id="MJkaUFt4E90lAfmwO7AU-45" value="" style="shape=tableRow;horizontal=0;startSize=0;swimlaneHead=0;swimlaneBody=0;fillColor=none;collapsible=0;dropTarget=0;points=[[0,0.5],[1,0.5]];portConstraint=eastwest;top=0;left=0;right=0;bottom=0;" vertex="1" parent="MJkaUFt4E90lAfmwO7AU-32">
          <mxGeometry y="150" width="521" height="30" as="geometry" />
        </mxCell>
        <mxCell id="MJkaUFt4E90lAfmwO7AU-46" value="" style="shape=partialRectangle;connectable=0;fillColor=none;top=0;left=0;bottom=0;right=0;editable=1;overflow=hidden;" vertex="1" parent="MJkaUFt4E90lAfmwO7AU-45">
          <mxGeometry width="30" height="30" as="geometry">
            <mxRectangle width="30" height="30" as="alternateBounds" />
          </mxGeometry>
        </mxCell>
        <mxCell id="MJkaUFt4E90lAfmwO7AU-47" value="download_status: SMALLINT (PENDING, DOWNLOADING, FAILED, SUCCESSFUL)" style="shape=partialRectangle;connectable=0;fillColor=none;top=0;left=0;bottom=0;right=0;align=left;spacingLeft=6;overflow=hidden;" vertex="1" parent="MJkaUFt4E90lAfmwO7AU-45">
          <mxGeometry x="30" width="491" height="30" as="geometry">
            <mxRectangle width="491" height="30" as="alternateBounds" />
          </mxGeometry>
        </mxCell>
        <mxCell id="MJkaUFt4E90lAfmwO7AU-48" value="" style="shape=tableRow;horizontal=0;startSize=0;swimlaneHead=0;swimlaneBody=0;fillColor=none;collapsible=0;dropTarget=0;points=[[0,0.5],[1,0.5]];portConstraint=eastwest;top=0;left=0;right=0;bottom=0;" vertex="1" parent="MJkaUFt4E90lAfmwO7AU-32">
          <mxGeometry y="180" width="521" height="30" as="geometry" />
        </mxCell>
        <mxCell id="MJkaUFt4E90lAfmwO7AU-49" value="" style="shape=partialRectangle;connectable=0;fillColor=none;top=0;left=0;bottom=0;right=0;editable=1;overflow=hidden;" vertex="1" parent="MJkaUFt4E90lAfmwO7AU-48">
          <mxGeometry width="30" height="30" as="geometry">
            <mxRectangle width="30" height="30" as="alternateBounds" />
          </mxGeometry>
        </mxCell>
        <mxCell id="MJkaUFt4E90lAfmwO7AU-50" value="metadata: TEXT (Progress %, Filetype, Number of Seeds, Number of Leeches, etc...)" style="shape=partialRectangle;connectable=0;fillColor=none;top=0;left=0;bottom=0;right=0;align=left;spacingLeft=6;overflow=hidden;" vertex="1" parent="MJkaUFt4E90lAfmwO7AU-48">
          <mxGeometry x="30" width="491" height="30" as="geometry">
            <mxRectangle width="491" height="30" as="alternateBounds" />
          </mxGeometry>
        </mxCell>
        <mxCell id="MJkaUFt4E90lAfmwO7AU-51" style="edgeStyle=orthogonalEdgeStyle;rounded=0;orthogonalLoop=1;jettySize=auto;html=1;exitX=0;exitY=0.5;exitDx=0;exitDy=0;entryX=0;entryY=0.5;entryDx=0;entryDy=0;" edge="1" parent="1" source="MJkaUFt4E90lAfmwO7AU-36" target="MJkaUFt4E90lAfmwO7AU-6">
          <mxGeometry relative="1" as="geometry" />
        </mxCell>
      </root>
    </mxGraphModel>
  </diagram>
</mxfile>
